<svg width="24" height="24" viewBox="0 0 24 24" fill="none" xmlns="http://www.w3.org/2000/svg">
<rect width="24" height="24" rx="4" fill="#E41F2B"/>
<path d="M0.0123291 8H23.9878V16.784H0.0123291V8Z" fill="#E41F2B"/>
<path d="M21.6136 10.1063C21.6229 10.0481 21.6579 9.99914 21.6835 9.95021C21.7394 9.83837 21.7953 9.72886 21.8256 9.6077C21.8373 9.55644 21.8583 9.49353 21.8117 9.45392C21.7581 9.40732 21.6998 9.44693 21.6509 9.47489C21.5181 9.55178 21.4016 9.64731 21.2874 9.74517C20.9379 10.0411 20.6257 10.3766 20.3391 10.7354C19.8079 11.4018 19.3396 12.1101 18.9108 12.844C18.8246 12.9908 18.7384 13.1376 18.6639 13.3054C18.7291 13.3054 18.7664 13.2681 18.8037 13.2401C19.011 13.0817 19.2114 12.9163 19.4025 12.7415C19.7123 12.4596 20.0106 12.166 20.2995 11.8608C20.5162 11.6324 20.7236 11.3971 20.9169 11.1478C21.0078 11.0313 21.08 11.0057 21.2455 11.036C21.2012 11.1408 21.129 11.227 21.0591 11.3132C20.663 11.8025 20.2389 12.2662 19.7846 12.7019C19.3908 13.077 18.9714 13.4242 18.5217 13.7294C18.4379 13.7853 18.3796 13.8506 18.3377 13.9461C18.2235 14.2047 18.1163 14.468 18.0301 14.7383C17.9998 14.8338 17.9742 14.9317 17.9579 15.0319C17.9462 15.0971 17.9486 15.1624 17.9649 15.2276C17.9975 15.3511 18.0814 15.393 18.1909 15.3255C18.312 15.2532 18.4052 15.146 18.4938 15.0389C18.7268 14.7616 18.9178 14.454 19.1205 14.1558C19.3931 13.7574 19.6844 13.3753 20.0362 13.0421C20.2203 12.8673 20.423 12.7182 20.642 12.5924C20.7608 12.5248 20.8936 12.4899 21.0311 12.4875C21.1942 12.4852 21.327 12.5411 21.4156 12.6833C21.4202 12.6926 21.4319 12.6972 21.4389 12.7019C21.4458 12.6996 21.4505 12.6996 21.4528 12.6996C21.5111 12.5598 21.6253 12.5458 21.7581 12.5528C21.9002 12.5621 22.0447 12.5528 22.1891 12.5551C22.2707 12.5574 22.28 12.5714 22.238 12.6437L21.6928 13.5663C21.3853 14.0882 21.0754 14.6078 20.7841 15.1391C20.7562 15.188 20.7142 15.2462 20.7655 15.2975C20.8168 15.3511 20.875 15.3091 20.9239 15.2789C21.0567 15.1973 21.1732 15.0948 21.2781 14.9783C21.4761 14.7593 21.6579 14.5263 21.8303 14.2886C21.8862 14.2117 22.0004 14.1768 22.0866 14.2094C22.1146 14.221 22.1215 14.2397 22.1099 14.263C22.1006 14.284 22.0866 14.3026 22.0726 14.3236C21.8256 14.701 21.546 15.0528 21.2338 15.379C21.0637 15.5538 20.8843 15.7216 20.6723 15.8474C20.5581 15.9149 20.4393 15.9685 20.3065 15.9918C20.0828 16.0314 19.9127 15.9196 19.8941 15.6959C19.8894 15.6307 19.8801 15.5678 19.8731 15.5002C19.8172 15.5002 19.7962 15.5421 19.7659 15.5701C19.6028 15.7146 19.4304 15.845 19.2324 15.9429C19.1275 15.9942 19.018 16.0128 18.9038 15.9942C18.7244 15.9639 18.5986 15.8264 18.573 15.6377C18.559 15.5421 18.566 15.4466 18.566 15.3394C18.5147 15.3581 18.4938 15.3954 18.4635 15.4256C18.3027 15.5957 18.1373 15.7588 17.9369 15.88C17.846 15.9359 17.7482 15.9732 17.6457 15.9942C17.3987 16.0431 17.168 15.8544 17.1237 15.5794C17.0958 15.3977 17.1214 15.2229 17.1634 15.0482C17.2216 14.7989 17.3101 14.5566 17.3917 14.3142C17.401 14.2886 17.4103 14.263 17.4173 14.2374C17.4453 14.1442 17.4406 14.1418 17.3404 14.1535C17.3288 14.1558 17.3171 14.1558 17.3055 14.1581C17.0352 14.1768 17.0865 14.1558 16.9513 14.3725C16.7393 14.7127 16.511 15.0389 16.2314 15.3301C16.017 15.5538 15.7794 15.7425 15.5067 15.8893C15.3972 15.9499 15.2784 15.9848 15.1526 15.9988C14.8986 16.0244 14.7122 15.8916 14.6563 15.6423C14.605 15.4117 14.64 15.1857 14.7076 14.9643C14.8194 14.6032 14.9825 14.263 15.1969 13.9508C15.4205 13.6269 15.6582 13.317 15.9494 13.0514C16.1801 12.8394 16.4341 12.6623 16.7253 12.5481C16.8278 12.5085 16.9327 12.4852 17.0422 12.4875C17.3265 12.4899 17.4686 12.6297 17.4849 12.9163C17.4965 13.1213 17.4593 13.317 17.387 13.5081C17.3451 13.6199 17.2985 13.7318 17.2449 13.8389C17.2309 13.8646 17.203 13.8949 17.2216 13.9251C17.2449 13.9624 17.2868 13.9345 17.3195 13.9321C17.3474 13.9321 17.3731 13.9228 17.3987 13.9182C17.5129 13.8972 17.5874 13.8343 17.641 13.7271C17.9672 13.0794 18.3353 12.4526 18.7501 11.8561C19.258 11.1268 19.8335 10.4558 20.5045 9.87332C20.7795 9.63566 21.0567 9.39567 21.3946 9.2419C21.5274 9.18132 21.6625 9.13705 21.8093 9.14404C21.9817 9.15103 22.061 9.23025 22.0703 9.40499C22.0773 9.53547 22.047 9.65896 22.0027 9.78012C21.9794 9.8407 21.9491 9.90128 21.9212 9.95953C21.8559 10.0853 21.772 10.125 21.6136 10.1063ZM19.6261 15.3022C19.689 15.2998 19.7496 15.2532 19.8079 15.1996C20.0199 15.0086 20.1853 14.7756 20.3345 14.5356C20.6304 14.0649 20.9146 13.5896 21.2059 13.1166C21.2292 13.077 21.2548 13.0374 21.2688 12.9932C21.2967 12.9046 21.2455 12.8464 21.1523 12.8603C21.0707 12.872 20.9938 12.9023 20.9309 12.9582C20.8168 13.0631 20.6933 13.1586 20.5884 13.2727C20.4113 13.4685 20.2389 13.6688 20.0898 13.8855C19.8685 14.2047 19.6611 14.5333 19.526 14.9014C19.498 14.9783 19.4724 15.0575 19.4677 15.1367C19.4607 15.2439 19.5143 15.3045 19.6261 15.3022ZM16.2267 13.6339C16.1685 13.6852 16.1312 13.7551 16.0869 13.818C15.8819 14.1115 15.6955 14.4144 15.5697 14.7523C15.5347 14.8432 15.5114 14.9387 15.5044 15.0342C15.4881 15.2416 15.6302 15.3488 15.8236 15.2742C15.9192 15.2369 16.0007 15.1787 16.0753 15.1111C16.3549 14.8595 16.5692 14.5542 16.7579 14.2327C16.8185 14.1302 16.8162 14.1279 16.7044 14.0696C16.5482 13.9881 16.4084 13.8879 16.3059 13.7387C16.2826 13.7038 16.2686 13.6619 16.2267 13.6339ZM17.2402 13.0887V13.0421C17.2286 12.844 17.1098 12.7695 16.9234 12.8394C16.8115 12.8813 16.7183 12.9489 16.6414 13.0374C16.5646 13.126 16.5086 13.2262 16.5016 13.3496C16.483 13.6362 16.6904 13.797 16.8908 13.8832C16.942 13.9042 16.97 13.8762 16.9909 13.8343C17.0539 13.7154 17.1191 13.5943 17.1587 13.4638C17.196 13.3403 17.2449 13.2192 17.2402 13.0887ZM10.8142 10.9568C10.8491 10.8519 10.9283 10.8426 11.0215 10.8472C11.1683 10.8519 11.3175 10.8496 11.4642 10.8496C11.604 10.8496 11.611 10.8612 11.5365 10.9847C11.3757 11.255 11.2126 11.5229 11.0495 11.7932C10.7373 12.3128 10.4251 12.8301 10.1129 13.3496C10.0919 13.3869 10.0709 13.4242 10.0663 13.4685C10.0569 13.557 10.1035 13.5966 10.1851 13.564C10.227 13.5477 10.2666 13.5197 10.3062 13.4941C10.5323 13.3403 10.714 13.1376 10.8887 12.9279C10.9726 12.8277 11.0542 12.7229 11.138 12.6204C11.1916 12.5528 11.3338 12.5155 11.4107 12.5481C11.4316 12.5574 11.4386 12.5761 11.427 12.5947C11.4107 12.6204 11.392 12.646 11.3734 12.6716C11.1427 12.9838 10.9074 13.2937 10.6371 13.571C10.3948 13.8203 10.1431 14.0673 9.82161 14.2187C9.71909 14.2676 9.61191 14.3073 9.49775 14.2909C9.33232 14.2676 9.22048 14.1442 9.2065 13.9648C9.20184 13.9158 9.2065 13.8646 9.2065 13.804C9.15058 13.8226 9.12961 13.8622 9.09932 13.8902C8.96418 14.0207 8.81506 14.1302 8.64498 14.2117C8.53081 14.2653 8.41198 14.2909 8.28383 14.2863C8.05782 14.277 7.91802 14.1395 7.90637 13.9112C7.89938 13.79 7.91569 13.6712 7.93899 13.5523C7.94598 13.5197 7.96462 13.4871 7.94598 13.4428C7.82483 13.5523 7.71765 13.6688 7.59183 13.7667C7.4031 13.9158 7.21204 14.0626 6.99069 14.1651C6.79032 14.256 6.58528 14.3212 6.35927 14.284C6.08434 14.2374 5.84901 14.016 5.81872 13.7085C5.79309 13.4382 5.856 13.1842 5.95153 12.9372C6.03308 12.7229 6.13326 12.5178 6.2684 12.2965C6.14957 12.3245 6.05871 12.3454 5.96551 12.3664C5.9259 12.3757 5.91192 12.4083 5.89561 12.4386C5.65795 12.8557 5.36204 13.2285 5.03352 13.5756C4.87042 13.7481 4.698 13.9088 4.50461 14.0463C4.36714 14.1418 4.22269 14.2234 4.05959 14.2676C3.69844 14.3678 3.40254 14.1605 3.37458 13.7853C3.35827 13.564 3.39322 13.3496 3.46079 13.1423C3.61456 12.6809 3.86154 12.2709 4.16444 11.8911C4.37879 11.6231 4.61645 11.3785 4.88906 11.1711C5.0941 11.015 5.31311 10.8822 5.56009 10.8053C5.66494 10.7727 5.77212 10.7517 5.88163 10.768C6.13093 10.8006 6.28238 10.9661 6.29636 11.22C6.31034 11.4787 6.23578 11.7187 6.13559 11.9517C6.11928 11.9889 6.08899 12.0239 6.09831 12.0775C6.16122 12.0821 6.21248 12.0565 6.26374 12.0309C6.46179 11.9353 6.63188 11.8025 6.79731 11.6604C6.98603 11.4973 7.15146 11.3132 7.34718 11.1595C7.53358 11.0127 7.7293 10.8799 7.95763 10.8053C8.10442 10.7564 8.25587 10.754 8.40499 10.789C8.65197 10.8472 8.7871 11.0989 8.72652 11.3785C8.67993 11.5928 8.57508 11.7769 8.42596 11.9353C8.37703 11.9866 8.32111 12.0285 8.25354 12.0495C8.07413 12.1054 7.93899 11.9843 7.9786 11.8025C8.02753 11.5719 8.16267 11.4204 8.39567 11.3692C8.45392 11.3552 8.50052 11.3459 8.49819 11.2713C8.49586 11.1991 8.45625 11.1432 8.38402 11.1315C8.31878 11.1199 8.25354 11.1315 8.19063 11.1571C8.05083 11.2131 7.94132 11.3132 7.83181 11.4134C7.33087 11.8748 6.98137 12.4363 6.7344 13.0677C6.6878 13.1842 6.65518 13.303 6.6645 13.4312C6.68081 13.6968 6.84158 13.8156 7.09787 13.7411C7.28893 13.6852 7.44271 13.5663 7.58717 13.4358C7.96462 13.0933 8.28383 12.6972 8.58673 12.2872C8.83836 11.947 9.10631 11.6185 9.4162 11.3296C9.63987 11.1199 9.87287 10.9195 10.1711 10.8146C10.2294 10.7937 10.2899 10.7797 10.3528 10.7727C10.4926 10.7564 10.6138 10.7937 10.7163 10.8892C10.7443 10.9078 10.7629 10.9404 10.8142 10.9568ZM10.5043 11.1268C10.4624 11.1245 10.4158 11.1432 10.3692 11.1641C10.248 11.22 10.1688 11.3202 10.0802 11.4134C9.6655 11.8585 9.31601 12.3524 9.01544 12.879C8.91991 13.0467 8.83137 13.2215 8.80108 13.4172C8.78011 13.5593 8.85933 13.6246 8.99214 13.5733C9.10398 13.5314 9.19252 13.4568 9.26941 13.3683C9.45581 13.1539 9.6189 12.9233 9.77268 12.6856C10.0639 12.2313 10.3389 11.7676 10.6045 11.2993C10.6721 11.1874 10.6371 11.1268 10.5043 11.1268ZM5.00323 11.8934C4.99624 11.8957 4.98692 11.8981 4.98459 11.9027C4.75392 12.2243 4.53723 12.5551 4.38578 12.9209C4.32986 13.0561 4.2856 13.1982 4.29026 13.3496C4.29492 13.5151 4.3951 13.592 4.56053 13.557C4.68402 13.5314 4.77955 13.4615 4.87042 13.3799C5.14303 13.133 5.35272 12.8347 5.54611 12.5272C5.56941 12.4922 5.59271 12.4549 5.61368 12.4176C5.65329 12.3454 5.65096 12.3361 5.57873 12.3081C5.56708 12.3035 5.55776 12.3012 5.54611 12.2965C5.3434 12.2173 5.16633 12.1054 5.04284 11.919C5.03119 11.9074 5.02187 11.8957 5.00323 11.8934ZM5.2735 11.6884C5.27117 11.7396 5.28748 11.7909 5.31777 11.8375C5.41563 11.9866 5.56475 12.0565 5.73251 12.0891C5.78377 12.0984 5.81173 12.0728 5.8327 12.0285C5.93755 11.8258 6.00745 11.6115 6.02143 11.3855C6.03308 11.2037 5.9492 11.0896 5.77678 11.1105C5.53679 11.1408 5.2735 11.4391 5.2735 11.6884Z" fill="white"/>
<path d="M16.6647 9.42834C16.5832 9.37475 16.5086 9.38873 16.4364 9.39805C16.2546 9.42135 16.0962 9.50057 15.9378 9.58911C15.537 9.81045 15.1852 10.097 14.8543 10.4093C14.4233 10.8147 14.0249 11.248 13.6777 11.728C13.2956 12.2523 12.9531 12.8021 12.6968 13.4009C12.5337 13.7854 12.4125 14.1815 12.3589 14.5962C12.3333 14.8036 12.3589 15.0086 12.4801 15.188C12.6152 15.3907 12.8505 15.4839 13.0905 15.435C13.221 15.4071 13.3422 15.3535 13.454 15.2836C13.7616 15.0878 14.0179 14.8339 14.2369 14.545C14.4419 14.2747 14.6143 13.9858 14.7308 13.6642C14.7868 13.5058 14.8264 13.345 14.838 13.1773C14.8403 13.154 14.8403 13.1307 14.838 13.1074C14.824 12.8697 14.6679 12.7882 14.4629 12.9163C14.3091 13.0118 14.1973 13.154 14.0994 13.3031C13.9806 13.4872 13.899 13.6899 13.8501 13.9019C13.8361 13.9601 13.8105 13.9951 13.7546 14.023C13.454 14.1675 13.1954 14.3702 12.9577 14.6009C12.9461 14.6125 12.9344 14.6218 12.9228 14.6312C12.9181 14.6358 12.9088 14.6335 12.9018 14.6358C12.8762 14.6195 12.8855 14.5939 12.8878 14.5729C12.9461 14.1652 13.0602 13.7761 13.2816 13.4242C13.5053 13.0678 13.7988 12.7858 14.1786 12.5994C14.3487 12.5156 14.5258 12.462 14.7192 12.5086C14.8683 12.5458 14.9732 12.6367 15.0314 12.7812C15.0943 12.9373 15.0873 13.1004 15.0733 13.2635C15.0477 13.5734 14.9219 13.8483 14.7821 14.1186C14.64 14.3958 14.4722 14.6568 14.2742 14.8968C13.941 15.3045 13.5519 15.647 13.0719 15.8707C12.7993 15.9989 12.508 16.0478 12.2098 15.9779C11.8254 15.8847 11.583 15.6307 11.4572 15.2673C11.3128 14.8525 11.3337 14.4308 11.4689 14.0207C11.6483 13.4685 11.9046 12.9513 12.1958 12.448C12.4195 12.0635 12.6688 11.7001 12.9507 11.3576C13.3958 10.8147 13.8967 10.33 14.4675 9.91996C14.8357 9.65668 15.2201 9.42601 15.6372 9.25126C15.9051 9.13942 16.1847 9.08117 16.476 9.0835C16.6321 9.08583 16.7766 9.1301 16.8977 9.22563C16.949 9.26524 16.9886 9.26757 17.0445 9.2466C17.3008 9.14641 17.5687 9.09981 17.8413 9.09049C18.2305 9.07651 18.5963 9.16971 18.9364 9.35378C19.3116 9.55649 19.6867 9.76385 20.0595 9.96889C20.0735 9.97588 20.0874 9.98287 20.0991 9.99219C20.162 10.0341 20.162 10.0411 20.1084 10.097C19.9616 10.2462 19.8125 10.3929 19.668 10.5467C19.6191 10.598 19.5772 10.5933 19.5259 10.5607L18.9947 10.2462C18.7617 10.1064 18.5287 9.96423 18.2957 9.82909C18.0394 9.67997 17.7621 9.57979 17.4709 9.51921C17.3754 9.49824 17.2775 9.49591 17.182 9.51688C17.1377 9.5262 17.1074 9.54484 17.1074 9.60076C17.0981 10.0761 16.9303 10.5048 16.702 10.9102C16.5272 11.2201 16.3012 11.4904 16.0007 11.6931C15.8702 11.7793 15.7304 11.8469 15.5813 11.8888C15.3203 11.9657 15.1129 11.8166 15.0966 11.544C15.0873 11.3739 15.1269 11.2131 15.1898 11.057C15.3646 10.6236 15.6558 10.2718 15.989 9.95258C16.1754 9.7755 16.3781 9.6194 16.5948 9.48193C16.6111 9.46329 16.6298 9.45164 16.6647 9.42834ZM16.8441 9.81045C16.8488 9.62872 16.8441 9.62173 16.7183 9.69162C16.4806 9.82443 16.2709 9.99685 16.0776 10.1902C15.7933 10.4722 15.5626 10.7914 15.3925 11.1525C15.3506 11.2434 15.3157 11.3389 15.3133 11.4414C15.311 11.6045 15.4298 11.6907 15.5836 11.6418C15.7653 11.5859 15.9145 11.4764 16.0543 11.3482C16.2942 11.1246 16.4737 10.8589 16.6181 10.57C16.7439 10.3207 16.8255 10.0528 16.8441 9.81045ZM10.7745 16.1433C10.6557 16.0781 10.5555 16.0198 10.4507 15.9686C9.99633 15.7496 9.52101 15.6214 9.01075 15.647C8.7428 15.661 8.50048 15.7379 8.30011 15.922C8.26982 15.9499 8.24186 15.9826 8.2139 16.0152C8.13235 16.113 8.13002 16.1154 8.06012 16.0128C7.94129 15.8404 7.78751 15.7076 7.60344 15.6051C7.33783 15.456 7.04891 15.3907 6.74601 15.3651C6.18449 15.3185 5.63928 15.414 5.09872 15.5445C4.50691 15.689 3.9151 15.8334 3.31396 15.9383C3.03437 15.9872 2.75244 16.0222 2.46818 15.9756C1.96491 15.8917 1.53852 15.6797 1.24495 15.2486C1.1168 15.0622 1.06321 14.8479 1.02593 14.6288C0.93972 14.1279 1.00729 13.6386 1.16107 13.161C1.3498 12.5715 1.6457 12.0379 2.00452 11.5346C2.32605 11.0826 2.69885 10.6772 3.10427 10.3044C3.59822 9.85006 4.14343 9.46562 4.77486 9.22097C5.03348 9.12078 5.2991 9.05554 5.58103 9.05554C5.99809 9.05787 6.23808 9.31883 6.17983 9.72657C6.14488 9.96889 6.04003 10.1856 5.86295 10.3603C5.79772 10.4232 5.72316 10.4698 5.62996 10.4861C5.5088 10.5071 5.40628 10.4372 5.38065 10.3161C5.34104 10.1273 5.44123 9.91064 5.61598 9.81278C5.68821 9.77317 5.76277 9.74055 5.84431 9.73123C5.90023 9.72424 5.9212 9.68929 5.92586 9.63571C5.93751 9.50057 5.86295 9.41203 5.72549 9.40271C5.62763 9.39572 5.5321 9.41436 5.4389 9.44465C5.08474 9.56348 4.77486 9.76385 4.49293 10.0062C3.84753 10.563 3.3093 11.2154 2.84098 11.9237C2.53109 12.3921 2.29111 12.8977 2.14199 13.4406C2.04879 13.7807 1.97889 14.1279 2.00452 14.4867C2.02549 14.7849 2.13034 15.0436 2.35634 15.2486C2.48449 15.3628 2.63361 15.435 2.79438 15.4816C2.93884 15.5235 3.08796 15.5515 3.24173 15.5585C3.72637 15.5841 4.20168 15.5119 4.67234 15.4024C5.28512 15.2579 5.89557 15.1135 6.50836 14.969C6.95571 14.8618 7.40773 14.7873 7.86673 14.7966C8.65426 14.8129 9.38121 15.0226 10.0383 15.4653C10.2713 15.6214 10.481 15.8055 10.679 16.0035C10.7163 16.0361 10.7536 16.0711 10.7745 16.1433ZM23.5964 9.12311C23.608 9.16272 23.5894 9.18369 23.5754 9.20699C23.2329 9.77317 22.7809 10.2275 22.1984 10.5467C21.8209 10.7541 21.4225 10.8986 20.9891 10.9382C20.8097 10.9545 20.6327 10.9452 20.4556 10.9079C20.367 10.8892 20.36 10.8729 20.4136 10.8054C20.5488 10.6353 20.6909 10.4698 20.84 10.3114C20.8773 10.2718 20.9216 10.2741 20.9682 10.2741C21.1383 10.2741 21.3083 10.2811 21.4808 10.2578C21.8722 10.2042 22.2287 10.0598 22.5735 9.87569C22.9277 9.68463 23.2422 9.43999 23.5358 9.16505C23.5475 9.1534 23.5591 9.14408 23.5708 9.13476C23.5754 9.12777 23.5824 9.12777 23.5964 9.12311ZM12.4544 10.8473C12.543 10.8473 12.6339 10.845 12.7224 10.8473C12.7806 10.8496 12.7923 10.8683 12.7597 10.9195C12.6572 11.0896 12.5523 11.255 12.4475 11.4251C12.4218 11.4671 12.3892 11.4834 12.3426 11.481C12.1679 11.481 11.9931 11.4834 11.8184 11.4787C11.7391 11.4787 11.7275 11.4577 11.7694 11.3878C11.8673 11.2247 11.9675 11.064 12.0677 10.9009C12.0933 10.8589 12.1259 10.8426 12.1749 10.845C12.2681 10.8473 12.3613 10.8473 12.4544 10.8473Z" fill="white"/>
</svg>
