<svg width="24" height="24" viewBox="0 0 24 24" fill="none" xmlns="http://www.w3.org/2000/svg">
<path d="M11.5201 22.6643C11.715 22.5669 16.783 20.374 18.3911 19.0582C20.048 17.6938 20.9251 15.7445 20.9251 13.4054V2.44096L20.7789 2.39223C16.7343 0.199337 11.715 0.345529 11.4713 0.345529C11.2764 0.345529 6.25712 0.199337 2.21245 2.39223L2.11499 2.44096V13.4542C2.11499 15.7932 2.99215 17.7425 4.649 19.107C6.25712 20.4227 11.3251 22.6156 11.5201 22.6643Z" fill="#341B14"/>
<path d="M11.52 22.9077C11.52 22.9077 6.15964 20.5686 4.50279 19.2529C2.74847 17.7909 1.92004 15.793 1.92004 13.5026V2.09956C6.15964 -0.1908 11.52 0.004124 11.52 0.004124C11.52 0.004124 16.8805 -0.1908 21.12 2.09956V13.4539C21.12 15.7442 20.2916 17.7422 18.5373 19.2041C16.8805 20.5686 11.52 22.9077 11.52 22.9077ZM2.69974 13.5026C2.69974 15.6468 3.47944 17.4011 4.9901 18.6194C6.35456 19.7402 10.3992 21.5432 11.52 22.0305C12.6409 21.5432 16.7343 19.6914 18.05 18.6194C19.5607 17.4011 20.3403 15.598 20.3403 13.5026V2.29448C14.6876 1.75844 7.96268 2.05082 2.69974 6.92392V13.5026Z" fill="#FFB406"/>
<path d="M16.9293 11.8947C17.6603 12.3333 17.9527 12.6257 18.0014 13.1617C18.0014 13.7465 17.6116 14.0876 16.9781 14.0876C16.442 14.0876 15.8085 13.7952 15.3699 13.4054V14.9648C15.906 15.2572 16.5395 15.5008 17.2217 15.5008C18.8786 15.5008 19.6583 14.3313 19.6583 13.2592C19.707 12.2846 19.4146 11.5049 18.0014 10.6765C17.3679 10.2866 16.8806 10.043 16.8806 9.45818C16.8806 8.87341 17.4166 8.62976 17.8552 8.62976C18.44 8.62976 19.0248 8.97087 19.3659 9.31199V7.85006C19.0735 7.60641 18.44 7.26529 17.5141 7.31402C16.3933 7.36275 15.2238 8.14245 15.2238 9.50691C15.2725 10.4328 15.5649 11.115 16.9293 11.8947ZM11.1791 15.4034C11.3253 15.4521 11.5689 15.5008 11.9588 15.5008C13.8593 15.5008 14.9314 13.7952 14.9314 11.3587C14.9314 8.87341 13.8106 7.36275 11.8126 7.36275C10.8867 7.36275 10.1557 7.55768 9.52223 7.94752V18.9607H11.1791V15.4034ZM11.1791 8.77595C11.3253 8.72722 11.5689 8.62976 11.7639 8.62976C12.7385 8.62976 13.1283 9.40945 13.1283 11.31C13.1283 13.1617 12.641 14.0389 11.6664 14.0389C11.4227 14.0389 11.2278 13.9902 11.1303 13.9414V8.77595H11.1791ZM6.06233 15.5008C7.08568 15.5008 7.96284 15.2572 8.59634 14.8186V7.46021H6.89076V13.844C6.69583 13.9902 6.45218 14.0389 6.11106 14.0389C5.33137 14.0389 5.2339 13.3079 5.2339 12.8694V7.46021H3.52832V12.7719C3.52832 14.5749 4.40548 15.5008 6.06233 15.5008ZM17.4166 22.0795V23.2003H17.6116V22.7617H17.6603L17.9527 23.2003H18.1963C18.1963 23.2003 17.904 22.7617 17.8552 22.713C18.0014 22.6643 18.0989 22.5668 18.0989 22.4206C18.0989 22.2744 18.0014 22.0795 17.709 22.0795H17.4166ZM17.709 22.2257C17.8552 22.2257 17.904 22.3232 17.904 22.3719C17.904 22.4694 17.8552 22.5668 17.6603 22.5668H17.6116V22.2257H17.709Z" fill="#FFB406"/>
<path d="M18.4888 22.6156C18.4888 23.0054 18.1476 23.3466 17.7578 23.3466C17.3679 23.3466 17.0268 23.0054 17.0268 22.6156C17.0268 22.2257 17.3679 21.8846 17.7578 21.8846C18.1964 21.8846 18.4888 22.2257 18.4888 22.6156ZM17.7578 21.6897C17.2705 21.6897 16.8319 22.0795 16.8319 22.6156C16.8319 23.1029 17.2218 23.5415 17.7578 23.5415C18.2451 23.5415 18.6837 23.1516 18.6837 22.6156C18.6837 22.1283 18.2451 21.6897 17.7578 21.6897Z" fill="#FFB406"/>
</svg>
